<svg width="22" height="24" viewBox="0 0 22 24" fill="none" xmlns="http://www.w3.org/2000/svg">
<g id="Group">
<path id="Exclude" fill-rule="evenodd" clip-rule="evenodd" d="M16.146 1.23009L16.1472 2.10466C19.3609 2.35653 21.4839 4.54643 21.4873 7.90475L21.5 17.7348C21.5046 21.3963 19.2043 23.6492 15.5171 23.655L6.51053 23.6667C2.84639 23.6714 0.517286 21.3648 0.512678 17.6928L0.500008 7.97821C0.4954 4.59774 2.54345 2.41367 5.7572 2.11865L5.75605 1.24409C5.7549 0.731011 6.13502 0.345037 6.64185 0.345037C7.14867 0.343871 7.52879 0.728679 7.52995 1.24176L7.5311 2.05801L14.3733 2.04868L14.3721 1.23243C14.371 0.71935 14.7511 0.334543 15.2579 0.333377C15.7532 0.332211 16.1449 0.717018 16.146 1.23009ZM2.27506 8.33854L19.7146 8.31521V7.90708C19.665 5.40001 18.4072 4.08467 16.1495 3.88876L16.1506 4.78665C16.1506 5.28806 15.7601 5.6857 15.2648 5.6857C14.758 5.68686 14.3767 5.29039 14.3767 4.78898L14.3756 3.84445L7.5334 3.85378L7.53456 4.79714C7.53456 5.29972 7.15559 5.69619 6.64876 5.69619C6.14193 5.69736 5.76066 5.30205 5.76066 4.79947L5.7595 3.90159C3.51333 4.12664 2.27045 5.44665 2.27391 7.97588L2.27506 8.33854ZM14.7799 13.6384V13.6512C14.7914 14.1876 15.2291 14.5946 15.7601 14.5829C16.2785 14.5701 16.692 14.1258 16.6805 13.5894C16.6563 13.0763 16.2405 12.6577 15.7233 12.6589C15.1934 12.6705 14.7787 13.102 14.7799 13.6384ZM15.7313 18.8741C15.2015 18.8624 14.7741 18.4205 14.773 17.8841C14.7615 17.3477 15.1865 16.9034 15.7164 16.8906H15.7279C16.2693 16.8906 16.7081 17.3325 16.7081 17.8806C16.7093 18.4286 16.2716 18.8729 15.7313 18.8741ZM10.0341 13.657C10.0572 14.1934 10.496 14.6121 11.0259 14.5887C11.5443 14.5642 11.9578 14.1211 11.9347 13.5847C11.9221 13.06 11.4959 12.6519 10.9775 12.653C10.4477 12.6764 10.033 13.1206 10.0341 13.657ZM11.0305 18.8216C10.5007 18.8449 10.0629 18.4263 10.0387 17.8899C10.0387 17.3535 10.4523 16.9104 10.9821 16.8859C11.5005 16.8848 11.9278 17.2929 11.9394 17.8165C11.9635 18.354 11.5489 18.7971 11.0305 18.8216ZM5.28838 13.6979C5.31142 14.2342 5.75029 14.654 6.28016 14.6295C6.7985 14.6062 7.21203 14.162 7.18784 13.6256C7.17632 13.1008 6.75012 12.6927 6.23062 12.6939C5.70076 12.7172 5.28723 13.1615 5.28838 13.6979ZM6.28476 18.8274C5.7549 18.8519 5.31718 18.4321 5.29299 17.8957C5.29184 17.3594 5.70652 16.9151 6.23638 16.8918C6.75473 16.8906 7.18208 17.2987 7.1936 17.8235C7.21779 18.3598 6.80426 18.8041 6.28476 18.8274Z" fill="#727185"/>
</g>
</svg>
